<svg width="29" height="28" viewBox="0 0 29 28" fill="none" xmlns="http://www.w3.org/2000/svg">
<g clip-path="url(#clip0_7819_31516)">
<path d="M14.5118 2.99039C14.5511 2.99049 14.5905 2.99059 14.631 2.9907C15.2554 2.99335 15.8573 3.02924 16.4668 3.17155C16.5095 3.18122 16.5521 3.1909 16.596 3.20087C19.2123 3.8074 21.3581 5.37075 22.7895 7.64054C23.2174 8.34521 23.8497 9.45451 23.8497 10.2809C23.9139 10.2922 23.9782 10.3035 24.0445 10.3151C25.5625 10.6596 26.8365 11.7232 27.6581 13.0153C28.4854 14.3759 28.7492 16.1246 28.3943 17.6755C28.115 18.6353 27.7359 19.4719 27.0762 20.234C27.042 20.2755 27.0078 20.3169 26.9726 20.3597C26.0205 21.4843 24.5927 22.1902 23.1387 22.3669C22.9932 22.3715 22.8492 22.3738 22.7037 22.3731C22.662 22.3731 22.6204 22.3731 22.5774 22.3731C22.441 22.3731 22.3046 22.3726 22.1682 22.3722C22.0731 22.3721 21.9781 22.372 21.883 22.372C21.6337 22.3718 21.3844 22.3712 21.1351 22.3706C20.8803 22.3701 20.6255 22.3698 20.3707 22.3695C19.8715 22.3689 19.3723 22.368 18.8731 22.3669C18.8731 21.7713 18.8731 21.1758 18.8731 20.5622C19.1636 20.5608 19.4541 20.5594 19.7534 20.5579C19.9391 20.5565 20.1248 20.5551 20.3105 20.5534C20.6042 20.5508 20.898 20.5484 21.1917 20.5474C21.429 20.5465 21.6662 20.5446 21.9034 20.542C21.9932 20.5412 22.0831 20.5408 22.1729 20.5407C22.9295 20.54 23.6287 20.442 24.3077 20.0802C24.344 20.0615 24.3803 20.0428 24.4177 20.0235C24.71 19.8685 24.9668 19.685 25.2168 19.4684C25.2608 19.4352 25.3047 19.402 25.3499 19.3678C26.0401 18.7869 26.5242 17.7841 26.6387 16.8981C26.737 15.6831 26.5228 14.5072 25.7312 13.5429C25.6932 13.4983 25.6932 13.4983 25.6543 13.4528C25.6312 13.4219 25.6081 13.391 25.5843 13.3592C24.9634 12.5615 24.0071 12.2059 23.0567 11.9881C22.7555 11.915 22.5631 11.854 22.3731 11.5934C22.2189 11.313 22.1266 11.0227 22.0491 10.7135C21.7412 9.48961 21.1514 8.41666 20.2918 7.4972C20.1856 7.38248 20.1856 7.38248 20.0557 7.215C18.8101 5.82111 16.7818 5.0418 14.9542 4.93159C12.9368 4.84633 11.0169 5.4824 9.46684 6.78092C9.43501 6.80749 9.40317 6.83406 9.37037 6.86143C7.93906 8.07466 6.94596 9.93074 6.7725 11.8066C6.75398 12.0399 6.736 12.2731 6.72271 12.5068C6.69729 12.8936 6.6465 13.1529 6.36675 13.4391C6.12324 13.6241 5.85918 13.659 5.56267 13.6925C4.81644 13.7769 4.22673 14.0003 3.61528 14.4372C3.5806 14.4611 3.54591 14.485 3.51018 14.5096C2.91078 14.9674 2.49479 15.7949 2.37285 16.5253C2.26801 17.5752 2.48126 18.4938 3.12993 19.3488C3.67399 19.9771 4.49035 20.446 5.32552 20.5182C5.45508 20.5229 5.58429 20.5246 5.71393 20.5249C5.76254 20.5255 5.81115 20.526 5.86123 20.5266C6.02013 20.5283 6.17901 20.5292 6.33791 20.5301C6.44878 20.5312 6.55965 20.5322 6.67052 20.5333C6.961 20.5361 7.25148 20.5383 7.54196 20.5403C7.83891 20.5425 8.13586 20.5453 8.4328 20.5481C9.01446 20.5534 9.59612 20.5579 10.1778 20.5622C10.1778 21.1577 10.1778 21.7533 10.1778 22.3669C9.52453 22.3718 8.87129 22.3758 8.21802 22.3782C7.91458 22.3793 7.61116 22.3809 7.30773 22.3834C7.01413 22.3858 6.72054 22.3871 6.42693 22.3876C6.3157 22.388 6.20448 22.3888 6.09326 22.39C5.20777 22.3991 4.34874 22.3307 3.53667 21.943C3.49603 21.9242 3.45539 21.9054 3.41352 21.8861C3.06687 21.7205 2.76102 21.5208 2.46684 21.2731C2.39631 21.2139 2.39631 21.2139 2.32436 21.1535C1.29113 20.2531 0.585023 19.0377 0.485651 17.6546C0.413829 16.0876 0.75912 14.7378 1.82768 13.5519C2.65275 12.6687 3.66737 12.0864 4.87309 11.9215C4.87387 11.8802 4.87465 11.8389 4.87544 11.7964C4.98236 9.32856 6.28543 7.0539 8.05498 5.39451C8.78014 4.73658 9.62132 4.2377 10.5059 3.8278C10.559 3.80263 10.559 3.80263 10.6132 3.77695C11.8263 3.20893 13.1798 2.98333 14.5118 2.99039Z" fill="#115846"/>
<path d="M15.0295 13.7375C15.4133 14.0798 15.7737 14.446 16.1365 14.8103C16.2094 14.8833 16.2824 14.9563 16.3553 15.0293C16.546 15.2202 16.7366 15.4113 16.9271 15.6024C17.122 15.7979 17.3171 15.9933 17.5122 16.1887C17.894 16.5711 18.2757 16.9537 18.6572 17.3363C18.5643 17.5344 18.4543 17.6613 18.2979 17.8157C18.2489 17.8644 18.1999 17.913 18.1495 17.9631C18.0982 18.0135 18.047 18.0638 17.9942 18.1156C17.9419 18.1673 17.8897 18.219 17.8376 18.2707C17.71 18.397 17.5822 18.523 17.4541 18.6488C16.6467 18.2452 16.1236 17.4278 15.4854 16.7895C15.4673 19.4965 15.4493 22.2035 15.4307 24.9926C14.8351 24.9926 14.2396 24.9926 13.626 24.9926C13.5989 20.905 13.5989 20.905 13.5713 16.7348C12.9397 17.3664 12.308 17.9981 11.6572 18.6488C11.3643 18.3977 11.0845 18.1458 10.8096 17.8764C10.7691 17.838 10.7287 17.7995 10.687 17.76C10.649 17.7227 10.6111 17.6854 10.572 17.647C10.5203 17.5968 10.5203 17.5968 10.4675 17.5457C10.3994 17.4457 10.3994 17.4457 10.414 17.3399C10.4812 17.1507 10.6321 17.0268 10.7722 16.8885C10.8054 16.8551 10.8386 16.8217 10.8728 16.7873C10.9826 16.6771 11.093 16.5674 11.2035 16.4577C11.28 16.3812 11.3566 16.3047 11.433 16.2281C11.5935 16.0676 11.7543 15.9075 11.9152 15.7475C12.1213 15.5426 12.3268 15.3371 12.5322 15.1314C12.6902 14.9733 12.8484 14.8154 13.0068 14.6576C13.0826 14.5819 13.1584 14.5062 13.2341 14.4304C13.3401 14.3243 13.4465 14.2187 13.553 14.1131C13.5841 14.0818 13.6153 14.0505 13.6474 14.0183C14.0322 13.6386 14.5256 13.3764 15.0295 13.7375Z" fill="#115846"/>
</g>
<defs>
<clipPath id="clip0_7819_31516">
<rect width="28" height="28" fill="white" transform="translate(0.5)"/>
</clipPath>
</defs>
</svg>
