<svg width="32" height="32" viewBox="0 0 32 32" fill="none" xmlns="http://www.w3.org/2000/svg">
<rect x="0.5" y="0.5" width="31" height="31" rx="15.5" stroke="#115846"/>
<g clip-path="url(#clip0_7835_25836)">
<path d="M24.2786 13.6629C22.4573 10.8528 19.3478 9.14372 15.9992 9.1123C12.6507 9.14372 9.54118 10.8528 7.71986 13.6629C6.76005 15.0715 6.76005 16.924 7.71986 18.3326C9.54015 21.1444 12.6498 22.8552 15.9993 22.8877C19.3478 22.8563 22.4573 21.1472 24.2787 18.3371C25.2405 16.9274 25.2405 15.0725 24.2786 13.6629ZM22.415 17.0554C21.0244 19.261 18.6065 20.6066 15.9992 20.626C13.392 20.6067 10.974 19.261 9.58348 17.0554C9.14997 16.4186 9.14997 15.5814 9.58348 14.9445C10.974 12.739 13.392 11.3934 15.9992 11.374C18.6065 11.3933 21.0244 12.739 22.415 14.9445C22.8485 15.5814 22.8485 16.4186 22.415 17.0554Z" fill="#115846"/>
<path d="M16 19.0156C17.6655 19.0156 19.0156 17.6655 19.0156 16C19.0156 14.3345 17.6655 12.9844 16 12.9844C14.3345 12.9844 12.9844 14.3345 12.9844 16C12.9844 17.6655 14.3345 19.0156 16 19.0156Z" fill="#115846"/>
</g>
<defs>
<clipPath id="clip0_7835_25836">
<rect width="18" height="18" fill="white" transform="translate(7 7)"/>
</clipPath>
</defs>
</svg>
