<svg width="32" height="32" viewBox="0 0 32 32" fill="none" xmlns="http://www.w3.org/2000/svg">
<rect x="0.5" y="0.5" width="31" height="31" rx="15.5" stroke="#787878"/>
<path d="M24.3346 9.33333H20.168V7.66667C20.168 7.22464 19.9924 6.80072 19.6798 6.48816C19.3673 6.17559 18.9433 6 18.5013 6H13.5013C13.0593 6 12.6354 6.17559 12.3228 6.48816C12.0102 6.80072 11.8346 7.22464 11.8346 7.66667V9.33333H7.66797V11H9.33464V23.5C9.33464 24.163 9.59803 24.7989 10.0669 25.2678C10.5357 25.7366 11.1716 26 11.8346 26H20.168C20.831 26 21.4669 25.7366 21.9357 25.2678C22.4046 24.7989 22.668 24.163 22.668 23.5V11H24.3346V9.33333ZM13.5013 7.66667H18.5013V9.33333H13.5013V7.66667ZM21.0013 23.5C21.0013 23.721 20.9135 23.933 20.7572 24.0893C20.6009 24.2455 20.389 24.3333 20.168 24.3333H11.8346C11.6136 24.3333 11.4017 24.2455 11.2454 24.0893C11.0891 23.933 11.0013 23.721 11.0013 23.5V11H21.0013V23.5Z" fill="#787878"/>
<path d="M15.1667 14.333H13.5V20.9997H15.1667V14.333Z" fill="#787878"/>
<path d="M18.5026 14.333H16.8359V20.9997H18.5026V14.333Z" fill="#787878"/>
</svg>
